<?xml version="1.0" standalone="no"?>
<!DOCTYPE svg PUBLIC "-//W3C//DTD SVG 20010904//EN"
 "http://www.w3.org/TR/2001/REC-SVG-20010904/DTD/svg10.dtd">
<svg version="1.0" xmlns="http://www.w3.org/2000/svg"
 width="348.000000pt" height="348.000000pt" viewBox="0 0 348.000000 348.000000"
 preserveAspectRatio="xMidYMid meet">
<metadata>
Created by potrace 1.11, written by Peter Selinger 2001-2013
</metadata>
<g transform="translate(0.000000,348.000000) scale(0.100000,-0.100000)"
fill="#000000" stroke="none">
<path d="M1671 2703 c-19 -21 -98 -213 -299 -736 -151 -390 -278 -735 -284
-767 -15 -85 2 -178 50 -273 l40 -77 -414 0 -413 0 -35 31 c-78 68 -47 187 54
212 14 4 109 -12 228 -38 237 -52 260 -54 291 -21 31 33 26 92 -9 117 -40 29
-430 112 -504 107 -187 -13 -311 -198 -251 -377 21 -63 90 -141 152 -172 l48
-24 623 0 624 0 19 24 c24 29 25 82 2 110 -13 16 -36 24 -86 31 -83 12 -132
36 -180 89 -54 60 -70 98 -75 181 l-4 75 247 640 c135 352 250 643 253 647 4
4 33 -15 65 -41 108 -89 219 -131 362 -138 162 -8 310 42 426 146 l56 50 249
-642 c279 -724 279 -725 231 -830 -30 -66 -85 -123 -146 -151 -37 -17 -71 -21
-177 -24 l-131 -4 -30 54 c-36 62 -62 88 -121 118 -86 45 -187 39 -277 -16
-58 -34 -58 -34 -79 -15 -63 57 -175 76 -267 46 -177 -59 -267 -345 -108 -345
45 0 75 31 84 87 13 81 79 126 150 103 46 -15 85 -63 85 -104 0 -51 33 -86 81
-86 45 0 75 24 84 67 4 16 8 39 11 51 6 31 47 68 82 75 62 12 125 -24 137 -80
16 -74 30 -98 65 -110 42 -14 246 -16 350 -3 201 26 360 182 391 385 19 120
43 49 -425 1260 -178 461 -173 457 -337 299 -113 -107 -184 -148 -292 -166
-146 -24 -267 24 -416 166 -111 107 -133 116 -180 69z"/>
<path d="M1881 1903 c-11 -10 -24 -32 -27 -50 -5 -27 -1 -37 24 -63 19 -18 41
-30 57 -30 16 0 38 12 57 30 25 26 29 36 24 63 -8 41 -39 67 -81 67 -18 0 -42
-8 -54 -17z"/>
<path d="M2411 1894 c-24 -30 -26 -52 -10 -87 21 -47 80 -60 123 -26 33 26 37
88 6 119 -31 31 -93 27 -119 -6z"/>
</g>
</svg>
